# xmcd CD database file
#
# Track frame offsets:
#	150
#	23640
#	55267
#	78897
#	109652
#	137660
#	170895
#	194950
#	224722
#	248400
#
# Disc length: 3663 seconds
#
# Revision: 2
# Processed by: cddbd v1.5.2PL0 Copyright (c) Steve Scherf et al.
# Submitted via: CDex 1.81
#
DISCID=8f0e4d0a
DTITLE=Hank Jones Trio - Jazzpar 91
DYEAR=1991
DGENRE=Jazz
TTITLE0=Pent Up House
TTITLE1=When Will I Know You?
TTITLE2=Bloomdido
TTITLE3=Midnight Sun
TTITLE4=Monk's Mood
TTITLE5=Quintessence
TTITLE6=Bemsha Swing
TTITLE7=Up Jumped Spring
TTITLE8=Bags' Groove
TTITLE9=Four
EXTD=YEAR: 1991
EXTT0=
EXTT1=
EXTT2=
EXTT3=
EXTT4=
EXTT5=
EXTT6=
EXTT7=
EXTT8=
EXTT9=
PLAYORDER=
